<svg id="Layer_1" data-name="Layer 1" xmlns="http://www.w3.org/2000/svg" xmlns:xlink="http://www.w3.org/1999/xlink" viewBox="0 0 2000 1000"><defs><style>.cls-1,.cls-3{fill:none;}.cls-2{clip-path:url(#clip-path);}.cls-3{stroke:#000;stroke-width:0.2px;}</style><clipPath id="clip-path"><rect class="cls-1" width="2000" height="1000"/></clipPath></defs><title>1</title><g class="cls-2"><path d="M1928.47,968.44v.84h-4.73a1.6,1.6,0,0,1,.1-.61,3.33,3.33,0,0,1,.58-.95,9.67,9.67,0,0,1,1.15-1.09,9.37,9.37,0,0,0,1.58-1.51,1.84,1.84,0,0,0,.41-1.06,1.2,1.2,0,0,0-.37-.88,1.52,1.52,0,0,0-2,0,1.43,1.43,0,0,0-.39,1.06l-.9-.1a2.21,2.21,0,0,1,.7-1.54,2.38,2.38,0,0,1,1.62-.53,2.26,2.26,0,0,1,1.63.57,1.89,1.89,0,0,1,.6,1.42,2.21,2.21,0,0,1-.17.84,3.22,3.22,0,0,1-.59.88,15.72,15.72,0,0,1-1.35,1.26q-.8.66-1,.9a3.09,3.09,0,0,0-.37.48Z"/><path d="M1895.33,968.45a2.43,2.43,0,0,1,0,.27h-2.39a2.62,2.62,0,0,1,0-.28l1,0s0,0,0,0v-3l-1,.28-.06-.26c.72-.26,1.51-.62,1.55-.62s0,0,0,0c0,1.16,0,2.36,0,3.55Z"/><path d="M1896.45,968.44a.32.32,0,0,1-.32.33.31.31,0,0,1-.34-.33.32.32,0,0,1,.33-.33A.32.32,0,0,1,1896.45,968.44Z"/><path d="M1897.9,965.1v-.27h1a3.07,3.07,0,0,1,1,.1,1,1,0,0,1,.77,1,1.26,1.26,0,0,1-.75,1.14,2.2,2.2,0,0,1-.85.15h-.25v1.22l.68,0a2.62,2.62,0,0,1,0,.28h-1.54v-.29h.39l0,0v-3.28Zm.88,1.77a.72.72,0,0,0,.32,0,1.17,1.17,0,0,0,.64-.16.85.85,0,0,0,.41-.76c0-.6-.42-.9-1.05-.9a1,1,0,0,0-.31,0Z"/><path d="M1901.23,968.43l0,0v-3.29l-.44,0a2.62,2.62,0,0,1,0-.28h2.54c0,.3,0,.6.05.91a2.91,2.91,0,0,1-.32,0l-.09-.52a.15.15,0,0,0-.14-.1c-.16,0-.56,0-.95,0h-.18v1.47h1c.1,0,.13,0,.13-.12l0-.29h.31c0,.19,0,.38,0,.58v.55h-.31l0-.32c0-.08,0-.11-.15-.11h-.93v1.44c0,.1,0,.12.33.12a7.1,7.1,0,0,0,.93,0c.06,0,.09,0,.11-.12l.19-.55.32.06-.21,1h-2.58v-.29Z"/><path d="M1903.89,965.1a2.44,2.44,0,0,1,0-.27h1.16a2.68,2.68,0,0,1,.82.09,1,1,0,0,1,.73.9,1.17,1.17,0,0,1-.82,1.08v0c.29.13.44.47.75,1.06.2.38.25.44.33.44l.36,0v.28h-.79c-.21-.28-.57-1.1-.77-1.4a.55.55,0,0,0-.55-.28h-.35v1.36l.5,0v.28h-1.38v-.29h.39s0,0,0,0v-3.28Zm.88,1.66a1.08,1.08,0,0,0,.32,0c.76,0,1-.48,1-.84,0-.57-.41-.85-1-.85a1,1,0,0,0-.34,0Z"/><path d="M1907.7,968.27a.08.08,0,0,0,0,.07,1.25,1.25,0,0,0,.56.13,1,1,0,0,0,.69-.23.66.66,0,0,0,.19-.48c0-.52-.29-.61-.87-.88s-.9-.52-.9-1a1.05,1.05,0,0,1,.39-.8,1.59,1.59,0,0,1,1-.28,2.08,2.08,0,0,1,.73.13c0,.29,0,.6.07.89l-.34,0-.1-.56s0-.06,0-.07a.72.72,0,0,0-.44-.12.86.86,0,0,0-.57.18.68.68,0,0,0-.23.5c0,.42.2.51.83.79s.94.52.94,1.07a1.06,1.06,0,0,1-.35.83,1.46,1.46,0,0,1-1.07.34,2.91,2.91,0,0,1-.89-.14c0-.32,0-.65-.07-.95l.34-.05Z"/><path d="M1909.92,965.1a2.62,2.62,0,0,1,0-.28h1.44a2.62,2.62,0,0,1,0,.28l-.48,0s0,0,0,0l0,3.29h.52a2.81,2.81,0,0,1,0,.29h-1.44a2.81,2.81,0,0,1,0-.29h.43a0,0,0,0,0,0,0v-3.28Z"/><path d="M1911.6,968.43a0,0,0,0,0,0,0c.42-1.07,1-2.56,1.39-3.63h.33c.4,1.08.92,2.58,1.31,3.67h.37a2.62,2.62,0,0,1,0,.28h-1.36c0-.1,0-.2,0-.29h.47a0,0,0,0,0,0,0c-.1-.27-.21-.61-.31-.87,0,0,0,0,0,0h-1.43l-.32.92h.54a2.62,2.62,0,0,1,0,.28h-1.32c0-.1,0-.2,0-.29Zm1.51-3-.63,1.74s0,0,0,0h1.26l-.61-1.78Z"/><path d="M1915.41,968.43s0,0,0,0v-3.28l-.44,0a2.62,2.62,0,0,1,0-.28h.87c.68,1,1.48,2.23,2.14,3.24h0c0-1,0-2,0-2.93l-.56,0v-.28h1.32a2.62,2.62,0,0,1,0,.28l-.36,0s0,0,0,0l0,3.56a1,1,0,0,1-.32.06c-.62-.86-1.45-2-2.23-3.22h0c0,1,0,1.92,0,2.89h.59v.28H1915a2.81,2.81,0,0,1,0-.29Z"/><line class="cls-3" x1="1870" y1="973.1" x2="1930" y2="973.1"/><path d="M1514.54,437.41l-.11-.19Z"/><path d="M1485.57,437.22l.09-.15Z"/><path d="M1497.06,474.31l-11.5-17.9h28.28l-11.19,17.41-3,4.59Zm56.64-42.9-14,25h24.7l-35.9,62.18-14-24.17-.11-.2,21.83-37.81,14.44-25h-101l14.35,25,21.6,37.66-.08.15-14.07,24.37-35.9-62.18h25.1l-14-25h-54.4l79.2,137.18,14.43-25L1500,519.23l14.07,24.36,14.43,25,79.2-137.18Z"/></g></svg>